# xmcd
#
# Track frame offsets:
#	150
#	16075
#	36350
#	56250
#	69987
#	94762
#	108262
#	126137
#	141612
#	164312
#	174737
#
# Disc length: 2513 seconds
#
# Revision: 2
# Processed by: cddbd v1.5.2PL0 Copyright (c) Steve Scherf et al.
# Submitted via: audiograbber 1.83.01
#
DISCID=9109cf0b
DTITLE=Blues 'N' Trouble - First Trouble
DYEAR=1989
DGENRE=Blues
TTITLE0=Born In Chicago
TTITLE1=Natural Born Lover
TTITLE2=C. T.
TTITLE3=Downtown Saturday Night
TTITLE4=Blues 'N' Trouble
TTITLE5=Sloppy Drunk
TTITLE6=Tearstains On My Pillow
TTITLE7=Mystery Train
TTITLE8=Wake Up Mama
TTITLE9=Deep Blue Feeling
TTITLE10=Spank The Plank
EXTD=
EXTT0=
EXTT1=
EXTT2=
EXTT3=
EXTT4=
EXTT5=
EXTT6=
EXTT7=
EXTT8=
EXTT9=
EXTT10=
PLAYORDER=
